<svg id="Layer_1" data-name="Layer 1" xmlns="http://www.w3.org/2000/svg" viewBox="0 0 332.63 332.63"><title>BLDG 61 - LOGO</title><path d="M106.52,173.3c-2.15,0-5.16.21-8.38.43-1.93,4.94-3,9-3,13.32,0,9.88,6.23,16.75,15.47,16.75,9,0,14.82-7.09,14.82-15.25C125.42,179.1,118.55,173.3,106.52,173.3Z"/><path d="M166.31.81a165.5,165.5,0,1,0,165.5,165.5A165.5,165.5,0,0,0,166.31.81ZM109.74,245.05c-43.18,0-64.67-26.64-64.67-57.79,0-23,10.1-40.6,28.79-67.24L93.63,91.66h59.72l-36.74,44.9a63.19,63.19,0,0,1,6.45-.22c27.5,0,52.42,15.69,52.42,49.63C175.48,219.06,150.56,245.05,109.74,245.05Zm160.28-3H218.24V166.42l-31.37,17V129.68L267,87.57l3,1.29Z"/></svg>
