<svg id="Layer_1" data-name="Layer 1" xmlns="http://www.w3.org/2000/svg" viewBox="0 0 360 360"><title>BLDG 61 - LOGO</title><path d="M0,0V360H360V0ZM115.76,271.55c-52,0-77.88-32.08-77.88-69.6,0-27.68,12.16-48.89,34.67-81L96.36,86.82h71.92L124,140.9a77.38,77.38,0,0,1,7.76-.26c33.12,0,63.13,18.88,63.13,59.76C194.93,240.24,164.92,271.55,115.76,271.55Zm193-3.62H246.42V176.86L208.64,197.3V132.62l96.51-50.71,3.62,1.55Z"/><path d="M111.88,185.14c-2.59,0-6.21.26-10.09.51-2.33,5.95-3.62,10.87-3.62,16,0,11.9,7.5,20.18,18.62,20.18,10.87,0,17.86-8.54,17.86-18.37C134.65,192.12,126.37,185.14,111.88,185.14Z"/></svg>
